<svg id="Capa_1" enable-background="new 0 0 512 512" height="512" viewBox="0 0 512 512" width="512" xmlns="http://www.w3.org/2000/svg"><g><path d="m253.133 50.255c0-5.522-4.478-10-10-10h-68.425c-5.522 0-10 4.478-10 10s4.478 10 10 10h68.425c5.522 0 10-4.478 10-10z"/><path d="m272.319 54.08c.25.6.561 1.18.921 1.729 3.658 5.839 12.983 5.853 16.63 0 3.994-5.624.452-14.216-6.361-15.359-7.659-1.669-14.321 6.441-11.19 13.63z"/><path d="m243.452 454.824h-30.639c-5.522 0-10 4.478-10 10s4.478 10 10 10h30.639c5.522 0 10-4.478 10-10s-4.477-10-10-10z"/><path d="m455.378 101.376h-70.404v-50.445c0-28.083-22.848-50.931-50.931-50.931h-211.819c-28.083 0-50.931 22.848-50.931 50.931v180.388h-21.764c-11.584 0-21.008 9.425-21.008 21.009v100.987c0 11.588 9.427 21.015 21.015 21.015h21.757v86.74c0 28.083 22.848 50.931 50.931 50.931h211.819c28.083 0 50.931-22.848 50.931-50.931v-137.435h70.394c15.501 0 28.111-12.611 28.111-28.112v-166.046c0-15.496-12.606-28.101-28.101-28.101zm-406.857 251.938v-100.987c0-.557.452-1.009 1.008-1.009h125.267c.56 0 1.016.456 1.016 1.016v100.987c0 .556-.452 1.008-1.009 1.008h-16.204c-2.984 0-5.813 1.333-7.712 3.635l-4.052 4.908-5.411-5.534c-1.882-1.924-4.459-3.009-7.15-3.009h-84.738c-.559 0-1.015-.455-1.015-1.015zm285.522 138.686h-211.819c-17.056 0-30.931-13.875-30.931-30.931v-22.729h273.681v22.729c0 17.056-13.875 30.931-30.931 30.931zm30.931-73.659h-273.681v-44.012h38.772l10.248 10.481c1.886 1.928 4.465 3.009 7.149 3.009.141 0 .281-.003.422-.009 2.835-.119 5.485-1.438 7.291-3.626l8.136-9.855h11.491c11.584 0 21.009-9.424 21.009-21.008v-100.987c0-11.588-9.428-21.016-21.016-21.016h-83.502v-180.387c0-17.056 13.875-30.931 30.931-30.931h211.819c17.056 0 30.931 13.875 30.931 30.931v50.445h-115.562c-15.501 0-28.112 12.61-28.112 28.111v166.047c0 15.495 12.605 28.101 28.101 28.101h21.932l15.308 18.545c1.806 2.188 4.456 3.507 7.291 3.626.141.006.281.009.422.009 2.685 0 5.264-1.081 7.148-3.009l18.747-19.171h44.726v94.706zm98.505-122.819c0 4.473-3.639 8.112-8.111 8.112h-139.328c-2.691 0-5.269 1.085-7.149 3.009l-13.909 14.224-11.225-13.598c-1.899-2.302-4.728-3.635-7.712-3.635h-26.645c-4.467 0-8.101-3.634-8.101-8.101v-166.046c0-4.473 3.639-8.111 8.112-8.111h205.966c4.467 0 8.101 3.634 8.101 8.101v166.045z"/><path d="m312.3 213.17c-1.636-3.931-5.692-6.456-9.949-6.148-4.146.3-7.75 3.232-8.896 7.225-1.154 4.021.403 8.437 3.793 10.874 3.342 2.403 7.948 2.467 11.372.189 3.919-2.608 5.491-7.797 3.68-12.14z"/><path d="m361.62 213.17c-1.559-3.746-5.322-6.243-9.388-6.177-4.062.066-7.769 2.681-9.203 6.479-1.498 3.971-.254 8.555 3.017 11.246 3.27 2.69 8.023 3.002 11.62.767 4.097-2.545 5.813-7.857 3.954-12.315z"/><path d="m410.95 213.17c-1.603-3.85-5.56-6.382-9.736-6.158-3.944.211-7.46 2.762-8.855 6.46-1.533 4.064-.191 8.811 3.264 11.453 3.317 2.537 7.988 2.736 11.5.472 4.001-2.578 5.664-7.821 3.827-12.227z"/></g></svg>