<svg id="Capa_1" enable-background="new 0 0 512 512" height="512" viewBox="0 0 512 512" width="512" xmlns="http://www.w3.org/2000/svg"><g><path d="m484.073 13.975h-203.992c-15.405 0-27.938 12.526-27.938 27.922v101.098c-26.395-29.957-65.005-48.903-107.951-48.945-79.36.078-143.924 64.738-143.924 144.122l-.268 158.358c-.046 19.984 6.731 31.07 18.088 40.33-5.299 11.246-8.263 23.799-8.263 37.033v14.133c0 5.523 4.478 10 10 10h248.755c5.522 0 10-4.477 10-10v-14.133c0-13.234-2.965-25.789-8.264-37.035 11.359-9.269 18.135-20.371 18.089-40.321l-.267-158.348c0-1.36-.02-2.715-.057-4.066h23.47l15.132 18.317c1.807 2.186 4.456 3.503 7.289 3.622.141.006.281.009.421.009 2.684 0 5.262-1.08 7.146-3.005l18.539-18.943h123.985c15.404 0 27.938-12.526 27.938-27.923v-164.314c-.001-15.39-12.529-27.911-27.928-27.911zm-225.494 464.05h-228.755v-4.133c0-37.038 30.133-67.171 67.172-67.171h94.412c37.038 0 67.171 30.133 67.171 67.171zm-134.437-120.94c-16.19 0-29.353-5.019-39.121-14.916-13.532-13.711-16.95-32.936-17.242-37.667.176-.98.208-2.001.076-3.035-.636-4.994-4.886-8.737-9.92-8.737-.78 0-1.632.107-2.501.338l-.005-.02c-.615.16-1.257.24-1.906.24-2.176 0-4.176-.893-5.63-2.513-.838-.934-2.196-2.942-1.876-5.903.377-3.474 3.301-6.323 6.804-6.628.719-.064 1.435-.029 2.122.101 2.928.55 5.944-.229 8.235-2.129s3.617-4.722 3.617-7.698v-26.353h25.358c21.778 0 40.974-11.272 52.049-28.282 11.075 17.01 30.27 28.282 52.048 28.282h25.359v26.353c0 2.977 1.326 5.798 3.617 7.698 2.292 1.899 5.308 2.679 8.235 2.129.462-.087.938-.131 1.419-.131 2.179 0 4.18.894 5.634 2.517.839.935 2.195 2.946 1.87 5.911-.375 3.421-3.251 6.261-6.688 6.606-.936.093-1.854.026-2.724-.199-2.828-.732-5.835-.19-8.229 1.482-2.396 1.672-3.939 4.309-4.227 7.215-.014.14-1.603 14.382-9.421 28.25-10.135 17.975-25.892 27.088-46.834 27.088-5.522 0-10 4.477-10 10v19.637h-20.121v-19.637c.002-5.522-4.476-9.999-9.998-9.999zm67.266 29.636h-17.146v-10.201c23.544-2.724 42.174-15.273 54.255-36.702 5.61-9.95 8.65-19.876 10.25-26.8 12.332-1.734 22.132-11.748 23.498-24.195.856-7.808-1.643-15.623-6.857-21.441-3.694-4.123-8.521-7.001-13.799-8.333v-44.701c0-5.523-4.478-10-10-10s-10 4.477-10 10v7.816h-25.359c-23.186 0-42.048-18.843-42.048-42.004 0-5.523-4.478-10-10-10s-10 4.477-10 10c0 23.161-18.863 42.004-42.049 42.004h-25.358v-7.816c0-5.523-4.478-10-10-10s-10 4.477-10 10v44.69c-11.001 2.756-19.41 12.138-20.661 23.68-.845 7.801 1.661 15.607 6.875 21.417 4.153 4.627 9.733 7.685 15.775 8.742 1.522 8.124 5.025 19.812 12.336 31.203 8.687 13.536 24.742 29.408 53.021 32.477v10.165h-17.145c-27.604 0-52.253 12.897-68.236 32.982-6.126-5.576-8.787-11.633-8.76-23.133l.268-158.382c0-68.383 55.602-124.071 123.925-124.138 68.343.067 123.944 55.755 123.944 124.155l.267 158.372c.027 11.473-2.635 17.542-8.761 23.124-15.984-20.085-40.632-32.981-68.235-32.981zm300.592-180.522c0 4.369-3.561 7.923-7.938 7.923h-128.19c-2.689 0-5.266 1.083-7.146 3.005l-13.705 14.003-11.051-13.377c-1.9-2.299-4.728-3.631-7.71-3.631h-30.134c-2.508-14.856-7.298-28.949-13.994-41.904.007-.157.011-.315.011-.474v-129.846c0-4.368 3.561-7.922 7.938-7.922h203.992c4.371 0 7.927 3.549 7.927 7.911z"/><path d="m339.281 113.59c-3.621-2.413-8.524-2.172-11.894.582-3.097 2.531-4.382 6.814-3.216 10.634 1.235 4.048 4.996 6.956 9.234 7.089 4.173.131 8.091-2.43 9.626-6.318 1.696-4.297.137-9.443-3.75-11.987z"/><path d="m391.31 118.08c-1.634-3.99-5.837-6.524-10.128-6.135-4.144.375-7.679 3.356-8.762 7.369-1.074 3.98.485 8.31 3.828 10.717 3.384 2.435 8.085 2.471 11.508.095 3.814-2.649 5.346-7.748 3.554-12.046z"/><path d="m439.65 118.08c-1.634-3.99-5.836-6.523-10.127-6.135-4.135.374-7.692 3.356-8.768 7.369-1.065 3.974.484 8.324 3.833 10.717 3.398 2.429 8.072 2.469 11.508.094 3.819-2.639 5.344-7.751 3.554-12.045z"/><path d="m124.319 279.651v-15.164c0-5.523-4.478-10-10-10s-10 4.477-10 10v15.164c0 5.523 4.478 10 10 10s10-4.477 10-10z"/><path d="m174.086 289.651c5.522 0 10-4.477 10-10v-15.164c0-5.523-4.478-10-10-10s-10 4.477-10 10v15.164c0 5.523 4.478 10 10 10z"/><path d="m167.31 324.614c3.904-3.906 3.902-10.238-.004-14.142s-10.236-3.903-14.143.003c-2.394 2.395-5.576 3.714-8.961 3.714s-6.567-1.319-8.961-3.714c-3.905-3.906-10.237-3.908-14.143-.003-3.906 3.904-3.908 10.236-.004 14.142 6.172 6.175 14.379 9.576 23.107 9.576s16.937-3.401 23.109-9.576z"/></g></svg>