<svg id="Layer_1" enable-background="new 0 0 512.003 512.003" height="512" viewBox="0 0 512.003 512.003" width="512" xmlns="http://www.w3.org/2000/svg"><g><path d="m256.001.662c-141.159 0-256.001 114.842-256.001 256.001 14.062 339.62 497.992 339.521 512.003-.002-.001-141.157-114.842-255.999-256.002-255.999zm175.305 413.842c-25.139-23.669-54.747-41.907-87.237-53.818 2.049-12.579 3.727-25.634 5.004-39.023h51.927c5.523 0 10-4.477 10-10v-45h80.793c-2.375 56.709-24.858 108.31-60.487 147.841zm-411.097-147.841h80.791v45c0 5.523 4.477 10 10 10h51.927c1.277 13.389 2.956 26.444 5.004 39.023-32.491 11.911-62.097 30.148-87.237 53.817-35.627-39.531-58.109-91.132-60.485-147.84zm60.487-167.841c25.139 23.668 54.746 41.907 87.237 53.818-2.048 12.579-3.727 25.634-5.004 39.023h-51.929c-5.523 0-10 4.477-10 10v45h-80.791c2.376-56.709 24.858-108.309 60.487-147.841zm175.305 246.242c-23.434 0-46.477 3.156-68.817 9.406-1.662-10.607-3.057-21.573-4.162-32.806h145.958c-1.106 11.233-2.5 22.199-4.162 32.806-22.341-6.25-45.383-9.406-68.817-9.406zm65.336 29.125c-8.198 40.625-28.46 113.748-65.336 117.246-36.934-3.573-57.088-76.512-65.338-117.246 41.752-12.136 88.924-12.136 130.674 0zm-200.337-72.526v-90.001h270v90.001zm62.021-110c1.106-11.233 2.5-22.199 4.163-32.806 44.488 12.532 93.146 12.532 137.634 0 1.663 10.607 3.057 21.573 4.163 32.806zm72.98-43.401c-22.405 0-44.351-3.111-65.337-9.126 8.198-40.624 28.46-113.748 65.336-117.245 36.934 3.573 57.087 76.512 65.337 117.246-20.985 6.015-42.931 9.125-65.336 9.125zm63.006-86.614c-6.745-15.391-14.212-27.924-22.256-37.465 46.152 8.066 87.737 29.586 120.551 60.355-22.583 21.169-48.649 37.425-76.859 48.219-5.482-27.042-12.747-51.286-21.436-71.109zm-126.013 0c-8.688 19.823-15.954 44.067-21.436 71.109-28.209-10.794-54.275-27.05-76.858-48.218 32.814-30.769 74.399-52.289 120.551-60.355-8.044 9.54-15.511 22.074-22.257 37.464zm-21.436 318.921c8.949 41.601 20.021 79.046 43.693 108.574-46.152-8.066-87.737-29.586-120.551-60.356 22.583-21.168 48.649-37.424 76.858-48.218zm147.449 71.109c8.688-19.823 15.954-44.067 21.436-71.109 28.21 10.794 54.275 27.05 76.858 48.219-32.814 30.769-74.399 52.289-120.551 60.355 8.045-9.541 15.512-22.074 22.257-37.465zm91.993-205.015v-45c0-5.523-4.477-10-10-10h-51.927c-1.277-13.389-2.956-26.444-5.004-39.023 32.491-11.912 62.098-30.149 87.237-53.818 35.629 39.532 58.111 91.132 60.487 147.841z"/><path d="m283.961 232.111c-5.276-1.637-10.877 1.316-12.512 6.592l-3.893 12.562-3.918-4.636c-3.768-4.68-11.507-4.68-15.274 0l-3.918 4.636-3.893-12.562c-1.634-5.275-7.237-8.228-12.512-6.592-5.275 1.635-8.227 7.236-6.592 12.512l9.297 30.001c1.081 3.489 3.979 6.112 7.559 6.839.664.135 1.331.201 1.993.201 2.909 0 5.716-1.272 7.637-3.545l8.066-9.543 8.066 9.542c2.358 2.791 6.05 4.074 9.63 3.344 3.58-.728 6.478-3.35 7.559-6.839l9.297-30.001c1.635-5.275-1.317-10.876-6.592-12.511z"/><path d="m203.96 232.111c-5.273-1.636-10.877 1.316-12.512 6.592l-3.893 12.562-3.918-4.636c-3.768-4.68-11.507-4.68-15.274 0l-3.918 4.636-3.893-12.562c-4.431-12.517-22.528-6.899-19.104 5.92l9.297 30.001c1.081 3.489 3.979 6.112 7.559 6.839.664.135 1.331.201 1.993.201 2.909 0 5.716-1.272 7.637-3.545l8.066-9.543 8.066 9.542c2.358 2.791 6.052 4.074 9.63 3.344 3.58-.728 6.478-3.35 7.559-6.839l9.297-30.001c1.635-5.275-1.316-10.876-6.592-12.511z"/><path d="m363.961 232.111c-5.275-1.636-10.877 1.316-12.512 6.592l-3.893 12.562-3.918-4.636c-3.768-4.68-11.507-4.68-15.274 0l-3.918 4.636-3.893-12.562c-1.634-5.275-7.236-8.227-12.512-6.592-5.275 1.635-8.227 7.236-6.592 12.512l9.297 30.001c1.081 3.489 3.979 6.112 7.559 6.839.664.135 1.331.201 1.993.201 2.909 0 5.716-1.272 7.637-3.545l8.066-9.543 8.066 9.542c2.358 2.791 6.051 4.074 9.63 3.344 3.58-.728 6.478-3.35 7.559-6.839l9.297-30.001c1.635-5.275-1.316-10.876-6.592-12.511z"/></g></svg>