<?xml version="1.0" encoding="UTF-8"?>
<svg xmlns="http://www.w3.org/2000/svg" id="Layer_1" data-name="Layer 1" viewBox="0 0 512 512" width="512" height="512"><path d="M339.528,128.766a5.989,5.989,0,0,0-5.827-5.495L292,123V108.712A41.988,41.988,0,0,0,249.889,67h-.02A41.821,41.821,0,0,0,208,108.748V123H178.45a5.91,5.91,0,0,0-5.979,5.391l-14.45,171.672a6.5,6.5,0,0,0,1.562,4.781A6.222,6.222,0,0,0,164,307H348a6.41,6.41,0,0,0,5.979-6.87ZM220,108.745A29.82,29.82,0,0,1,249.906,79h.014A29.985,29.985,0,0,1,280,108.748V123H220ZM290.539,295H170.526l2.233-27H293.144Zm3.783-39H173.769l10.2-121H208v18.807a6,6,0,1,0,12,0V135h60v18.807a6,6,0,1,0,12,0V135h14.22ZM316,153.188V277.644l-13.189,9.892ZM313.979,295l8.837-6.628L331.022,295ZM328,277.028V140.443l12.368,146.574Z"/><path d="M404.243,178.757a6,6,0,0,0-8.486,8.486L399.515,191l-3.758,3.757a6,6,0,0,0,8.486,8.486l8-8a6,6,0,0,0,0-8.486Z"/><path d="M402,157.667A33.333,33.333,0,1,0,435.333,191,33.371,33.371,0,0,0,402,157.667Zm0,54.666A21.333,21.333,0,1,1,423.333,191,21.357,21.357,0,0,1,402,212.333Z"/><path d="M116.243,178.757a6,6,0,0,0-8.486,0l-8,8a6,6,0,0,0,0,8.486l8,8a6,6,0,0,0,8.486-8.486L112.485,191l3.758-3.757A6,6,0,0,0,116.243,178.757Z"/><path d="M110,157.667A33.333,33.333,0,1,0,143.333,191,33.371,33.371,0,0,0,110,157.667Zm0,54.666A21.333,21.333,0,1,1,131.333,191,21.357,21.357,0,0,1,110,212.333Z"/><path d="M479.412,20H33.668A27.726,27.726,0,0,0,6,47.633v330.3C6,393.145,18.456,406,33.668,406H188v25.984a15.622,15.622,0,0,1-15.608,15.588A38.454,38.454,0,0,0,134,485.977a6.011,6.011,0,0,0,5.99,6.023H366.666a6.02,6.02,0,0,0,6-6.023,38.305,38.305,0,0,0-38.23-38.393A15.486,15.486,0,0,1,319,431.984V406H479.412C494.624,406,507,393.145,507,377.933V47.633A27.658,27.658,0,0,0,479.412,20ZM334.436,459.6A25.933,25.933,0,0,1,359.978,480h-213.3a26.124,26.124,0,0,1,25.715-20.4A27.656,27.656,0,0,0,200,431.984V406H307v25.984A27.509,27.509,0,0,0,334.436,459.6ZM495,377.933c0,8.6-6.993,16.067-15.588,16.067H33.668C25.072,394,18,386.528,18,377.933V334H495ZM48,322V59H464V322Zm447,0H476V52.871A5.891,5.891,0,0,0,470,47H42a5.891,5.891,0,0,0-6,5.871V322H18V47.633A15.712,15.712,0,0,1,33.668,32H479.412A15.645,15.645,0,0,1,495,47.633Z"/><path d="M253.328,380.536a16.794,16.794,0,1,0-16.8-16.794A16.813,16.813,0,0,0,253.328,380.536Zm0-21.588a4.794,4.794,0,1,1-4.8,4.794A4.8,4.8,0,0,1,253.328,358.948Z"/><path d="M65,69.668a6,6,0,0,0-6,6v4.713a6,6,0,0,0,12,0V75.668A6,6,0,0,0,65,69.668Z"/><path d="M65,96.906a6,6,0,0,0-6,6v64.178a6,6,0,0,0,12,0V102.906A6,6,0,0,0,65,96.906Z"/></svg>
